<?xml version="1.0" encoding="utf-8"?>
<!-- Generator: Adobe Illustrator 15.1.0, SVG Export Plug-In . SVG Version: 6.00 Build 0)  -->
<!DOCTYPE svg PUBLIC "-//W3C//DTD SVG 1.1//EN" "http://www.w3.org/Graphics/SVG/1.1/DTD/svg11.dtd">
<svg version="1.1" id="Ebene_2" xmlns="http://www.w3.org/2000/svg" xmlns:xlink="http://www.w3.org/1999/xlink" x="0px" y="0px"
	 width="1382.4px" height="230.4px" viewBox="0 0 1382.4 230.4" style="enable-background:new 0 0 1382.4 230.4;"
	 xml:space="preserve">
<g style="opacity:0.22;">
	<g>
		<path style="fill:#FFFFFF;" d="M1388.3,47.9c-44.5-0.3-140.4,11.8-282.4,96.6c-56.2,33.6-112,50-165.8,48.9
			c-90.9-1.9-160.3-52.5-206.2-86c-8.6-6.2-16.6-12.1-23.7-16.9l-13.1-8.9c-38.2-26.4-96-66.3-190.7-71.2
			c-76.2-4-165,15.5-264.2,57.8c-122.4,52.3-210.2,72.9-254,59.7l-4.4,2.9c47.9,14.5,136.7-5.8,263.9-60.1
			c97.4-41.6,184.1-60.7,257.8-56.8c91,4.7,145.3,42.2,184.9,69.6l13.1,9c7,4.7,15,10.5,23.6,16.7c46.8,34.1,117.5,85.7,212.6,87.7
			c56.6,1.2,114.6-15.8,172.5-50.3c139.9-83.6,232.9-95.5,275.9-95.2L1388.3,47.9z"/>
	</g>
	<g>
		<path style="fill:#FFFFFF;" d="M1388.6,52.8c-44.4-0.2-140.1,11.2-282.4,90.2c-10,5.6-20.7,10.9-32.5,16.2
			c-46.5,20.8-92.8,30.3-137.6,28.3c-86.5-3.9-154.5-50-199.4-80.4c-10.5-7.1-19.6-13.3-28-18.3c-4.9-3-10-6.2-15.4-9.6
			c-29.5-18.6-66.2-41.7-117.7-55.2c-91-23.7-203.4-8.3-334.1,45.8C118.7,120.4,33.5,139-11.6,124.9l-4.2,2.7
			C32.5,142.7,120.8,124,246.5,72C374.5,19,484,3.7,571.8,26.6c50.2,13.1,86.4,35.9,115.5,54.2c5.4,3.4,10.6,6.7,15.5,9.6
			c8.2,5,17.3,11.1,27.7,18.2c45.7,31,114.9,77.8,204.9,81.9c47.1,2.1,95.4-7.7,143.5-29.2c12-5.4,22.9-10.7,33.1-16.4
			c140.3-77.9,233.5-89.1,276.6-88.9L1388.6,52.8z"/>
	</g>
	<g>
		<path style="fill:#FFFFFF;" d="M1388.8,57.7c-44.3-0.1-139.9,10.7-282.4,83.7c-9.4,4.8-19.5,9.4-32.8,14.9
			c-45.8,18.8-91.5,27.3-135.7,25.2c-85.2-4-150.8-45.3-198.8-75.5c-12.1-7.6-22.5-14.2-32.1-19.4c-5.6-3.1-11.5-6.5-17.7-10.1
			c-29.9-17.2-67.2-38.7-117-50.8c-40.7-9.9-86.8-12.2-137-6.7c-59.4,6.5-125,24-194.8,52c-121.4,48.6-206.2,65.7-252.2,50.8l-4,2.5
			c48.9,15.9,136.7-1.3,260.8-51c127.6-51.1,236.6-66.2,324-44.9c48.6,11.9,85.3,33,114.9,50c6.3,3.6,12.2,7,17.8,10.1
			c9.4,5.2,19.8,11.7,31.8,19.3c48.7,30.6,115.4,72.6,203.7,76.7c46.2,2.2,93.7-6.6,141-26c13.4-5.5,23.7-10.2,33.3-15.1
			c140.7-72.2,234.1-82.8,277.2-82.7L1388.8,57.7z"/>
	</g>
	<g>
		<path style="fill:#FFFFFF;" d="M1389.1,62.5c-44.2,0-139.7,10.1-282.4,77.3c-11.4,5.4-23,9.8-33,13.5
			c-45.1,16.9-90,24.4-133.6,22.2C856,171.5,790,133,741.8,104.8c-13-7.6-25.3-14.8-36.1-20.2c-6.4-3.2-13-6.7-20-10.4
			c-30.3-15.9-68.1-35.7-116.3-46.7c-61.4-14-168.5-17.5-329.6,44.8c-120,46.4-204.5,62-251.2,46.4l-3.8,2.2
			c50.2,16.8,134.9,1.6,259.2-46.5c158.5-61.3,262.9-58,322.6-44.4c47,10.7,84.3,30.3,114.3,46c7.1,3.7,13.7,7.2,20.2,10.4
			c10.6,5.3,22.3,12.1,35.8,20c48.9,28.6,115.9,67.7,202.6,71.9c45.3,2.2,91.9-5.5,138.4-22.9c10.2-3.8,21.9-8.3,33.5-13.8
			c141.1-66.4,234.6-76.4,277.8-76.4L1389.1,62.5z"/>
	</g>
	<g>
		<path style="fill:#FFFFFF;" d="M1389.4,67.4c-44.1,0.1-139.5,9.6-282.4,70.9c-11,4.7-22.2,8.5-33,12.2l-0.2,0.1
			c-148.9,50.4-257.5-8.4-329.4-47.3c-14.4-7.8-28.1-15.2-40.1-20.6c-7.1-3.2-14.5-6.7-22.3-10.5c-32.3-15.5-69-33-115.6-42.7
			c-39.5-8.3-85.2-9.6-135.8-3.9c-59.1,6.7-123.6,22.9-191.7,48.2C120.3,118,36.1,132.1-11.5,115.7l-3.5,2
			c50.7,17.4,135,3.7,257.6-42c158.1-58.9,261.9-56.4,321.2-44c45.6,9.6,81.9,26.9,113.8,42.2c7.8,3.7,15.2,7.3,22.4,10.5
			c11.9,5.4,25.4,12.7,39.7,20.5c73.3,39.7,184.1,99.6,337.4,47.7l0.2-0.1c11-3.7,22.3-7.6,33.5-12.4
			c141.5-60.7,235.2-70.1,278.4-70.2L1389.4,67.4z"/>
	</g>
	<g>
		<path style="fill:#FFFFFF;" d="M1389.6,72.3c-44,0.3-139.2,9-282.5,64.5c-9.9,3.8-20.2,6.9-30.1,9.9l-3.4,1
			c-146.2,44.2-250.7-8-327-46.2c-15.8-7.9-30.8-15.4-44.1-20.8c-7.8-3.2-15.9-6.7-24.4-10.4c-32.7-14.2-69.9-30.3-115.1-39
			C513.9,22,406.2,15.1,238,75.2c-118.8,42.5-200.4,54.7-249.4,37.5l-3.3,1.8c51.3,18,135,5.8,256-37.5
			c166-59.4,271.7-52.7,319.8-43.5c44.4,8.5,81.1,24.5,113.5,38.5c8.5,3.7,16.6,7.2,24.5,10.4c13.1,5.3,27.9,12.8,43.7,20.7
			c37.1,18.6,83.3,41.7,138.5,54.3c65.1,14.9,129,12.4,195.4-7.7l3.4-1c10-3,20.4-6.2,30.6-10.1c142-55,235.8-63.7,279-63.9
			L1389.6,72.3z"/>
	</g>
	<g>
		<path style="fill:#FFFFFF;" d="M1389.9,77.2c-43.9,0.4-138.9,8.4-282.5,58.1c-9.3,3.2-18.9,5.7-28.2,8.2l-5.6,1.5
			c-143.3,38.2-248-10.1-324.4-45.3c-17.3-8-33.6-15.5-48.1-20.9c-8.5-3.1-17.1-6.5-26.2-10.1c-33.2-13-70.8-27.8-114.9-35.4
			c-48.7-8.4-155.4-14-323.1,43.3c-117.4,40.2-198.7,50.9-248.5,33l-3,1.6c51.8,18.7,135.1,7.9,254.4-33
			c165.8-56.7,270.7-51.3,318.4-43c43.3,7.5,80.6,22.1,113.5,35.1c9.1,3.6,17.8,7,26.3,10.1c14.3,5.3,30.5,12.8,47.7,20.7
			c37.3,17.2,83.8,38.7,138.4,50.6c64.2,14,126.9,12.4,191.8-4.9c0,0,5.5-1.5,5.5-1.5c9.4-2.5,19.2-5,28.7-8.3
			c142.5-49.3,236.4-57.3,279.7-57.7L1389.9,77.2z"/>
	</g>
	<g>
		<path style="fill:#FFFFFF;" d="M1390.2,82.1c-43.7,0.5-138.5,7.8-282.5,51.7c-8.8,2.7-17.9,4.7-26.8,6.7l-7.2,1.6
			C933.4,174.6,828.5,130.1,752,97.7c-18.7-7.9-36.5-15.4-52.2-20.7c-9-3-18.1-6.2-27.7-9.6c-33.7-11.9-72-25.5-115-32.1
			c-81.8-12.6-198.7,3-320.9,42.8c-116,37.8-197,47.1-247.6,28.5l-2.7,1.4c52.4,19.2,135.1,9.9,252.8-28.5
			c121-39.5,236.6-55,317-42.5c42.3,6.5,80.3,20,113.7,31.8c9.6,3.4,18.7,6.6,27.8,9.7c15.6,5.2,33.2,12.7,51.8,20.6
			c77.5,32.8,183.6,77.8,326.5,44.9l7.1-1.6c9-2,18.3-4.1,27.3-6.8c143.1-43.6,237-50.9,280.2-51.4L1390.2,82.1z"/>
	</g>
	<g>
		<path style="fill:#FFFFFF;" d="M1390.4,87c-43.5,0.6-138.1,7.3-282.6,45.4c-8.4,2.2-17.3,3.9-25.8,5.5l-8.4,1.6
			c-136.9,26.7-242-14.1-318.7-43.9c-20.3-7.9-39.5-15.3-56.6-20.5c-9.4-2.8-18.8-5.8-28.7-8.9c-36.1-11.4-73.4-23.3-115.6-29
			c-36.5-4.9-82.6-4.4-133.3,1.7c-58.2,6.9-120.6,20.6-185.4,40.6C120.7,114.9,40,122.8-11.5,103.5l-2.4,1.3
			c52.9,19.8,135.1,12,251.2-24c172-53.2,278-47.1,315.5-42.1c41.6,5.6,78.6,17.4,114.5,28.7c9.9,3.2,19.3,6.1,28.8,9
			c16.9,5.1,36,12.5,56.2,20.3C830,126.8,936,168,1075.1,140.9l8.4-1.6c8.7-1.6,17.6-3.3,26.3-5.6c143.8-37.9,237.6-44.6,280.8-45.1
			L1390.4,87z"/>
	</g>
	<g>
		<path style="fill:#FFFFFF;" d="M1390.7,91.9c-43.3,0.7-137.5,6.7-282.7,39c-8.2,1.8-16.7,3.1-25,4.3c-3.1,0.5-6.4,0.9-9.5,1.4
			c-59.1,9.4-117.3,8.3-178-3.3c-52.4-10-97.5-26-137.3-40.1c-22-7.8-42.8-15.2-61.3-20.2c-9.6-2.6-19-5.2-29-8
			c-37-10.5-75.3-21.3-116.9-26c-35.8-4.1-81.7-3.1-132.7,3.1c-57.9,7-119.8,20-183.9,38.7c-113.2,33.1-193.6,39.5-245.8,19.6
			l-2.1,1.1c53.4,20.4,135.1,14,249.7-19.5c119.6-34.9,237-50.5,314.1-41.6c41.1,4.7,79.2,15.5,116,25.9c9.6,2.7,19.4,5.5,29,8.1
			c18.3,4.9,39.1,12.3,61,20c40,14.2,85.3,30.2,138.1,40.3c61.5,11.7,120.4,12.8,180.3,3.3c3.1-0.5,6.3-1,9.4-1.4
			c8.4-1.2,17-2.5,25.4-4.4c144.6-32.2,238.4-38.2,281.4-38.8L1390.7,91.9z"/>
	</g>
	<g>
		<path style="fill:#FFFFFF;" d="M1391,96.8c-42.9,0.8-136.6,6.1-282.8,32.6c-8,1.5-16.3,2.4-24.4,3.3c-3.4,0.4-6.9,0.8-10.4,1.2
			c-57.3,7.1-114.3,5.2-174.1-5.8c-51.8-9.5-97.1-24.1-137.1-37c-24-7.7-46.6-15-66.7-19.8c-9.4-2.2-18.9-4.6-28.2-6.9
			C629,54.8,589.4,44.9,548,41c-35.1-3.3-80.8-1.8-132.1,4.5c-57.5,7-118.9,19.4-182.4,36.8c-111.9,30.7-192,35.6-245,15.1l-1.7,0.9
			c25.7,9.9,58.3,14,97.1,12.2c41.9-2,92.8-11.2,151-27.1C354.9,50.4,471.8,35,547.5,42.1c41,3.9,80.4,13.7,118.6,23.2
			c9.3,2.3,18.8,4.7,28.2,6.9c19.9,4.8,42.5,12,66.4,19.7c40.1,12.9,85.6,27.6,137.7,37.1c60.5,11.1,118,13,175.9,5.9
			c3.4-0.4,6.9-0.8,10.3-1.2c8.2-0.9,16.6-1.8,24.7-3.3C1255,104,1348.4,98.8,1391.1,98L1391,96.8z"/>
	</g>
	<g>
		<path style="fill:#FFFFFF;" d="M1391.3,101.7c-42.2,0.9-135.2,5.5-282.9,26.3c-7.8,1.1-16,1.7-23.9,2.3c-3.6,0.3-7.4,0.5-11.1,0.9
			C948.8,142,848,112.6,767.1,88.9c-26.2-7.7-51-14.9-72.9-19.5l-25.8-5.6C628.1,55.1,586.6,46,545,42.9
			c-34.4-2.5-79.9-0.5-131.5,5.9c-56.2,6.9-118.7,19-180.9,34.9C122,111.9,42.2,115.4-11.5,94.3l-1.4,0.7
			c26.1,10.3,59.1,14.8,98,13.5c41.5-1.4,91.5-9.5,148.4-24c120.9-30.9,237.2-46.1,311-40.7c41.3,3,82.7,12.1,122.7,20.8l25.8,5.6
			c21.8,4.6,46.5,11.8,72.7,19.5c40.2,11.7,85.7,25,136.9,34c59.3,10.4,115.2,13.2,170.9,8.3c3.7-0.3,7.4-0.6,11-0.9
			c8-0.6,16.2-1.2,24.2-2.3c147.5-20.8,240.2-25.4,282.4-26.2L1391.3,101.7z"/>
	</g>
	<g>
		<path style="fill:#FFFFFF;" d="M1391.5,106.6c-33,0.8-126.5,4.2-283.1,19.9c-7.8,0.8-15.8,1.1-23.6,1.4c-3.8,0.1-7.8,0.3-11.7,0.5
			c-119.4,6.1-219.4-20.3-299.9-41.5c-29-7.7-56.4-14.9-80.5-19.4l-21-4c-44.9-8.5-87.2-16.5-129.7-18.7
			c-33.5-1.7-78.8,0.8-130.9,7.3c-55.5,6.9-117.5,18.3-179.5,32.9c-55.5,13.1-104.3,20.1-145.2,20.8c-38.8,0.7-71.7-4.3-97.9-14.7
			l-1,0.5c26.5,10.6,59.8,15.6,99,14.9c41.1-0.7,90.2-7.8,145.9-20.9c120.5-28.4,239.1-43.8,309.5-40.2
			c42.2,2.2,84.5,10.2,129.2,18.7l21.1,4c24,4.5,51.4,11.7,80.3,19.3c80.6,21.3,181,47.7,300.9,41.6c3.9-0.2,7.8-0.3,11.6-0.5
			c7.8-0.3,16-0.6,23.8-1.4c156.5-15.7,249.9-19.2,282.8-19.9L1391.5,106.6z"/>
	</g>
	<g>
		<path style="fill:#FFFFFF;" d="M1391.8,111.5c-29.2,0.7-115.3,3.6-283.3,13.6c-7.7,0.5-15.7,0.5-23.4,0.5c-4,0-8,0-12.1,0.1
			c-113.4,1.7-212.1-21.7-291.4-40.6c-32.5-7.7-63.2-15-90.1-19.4l-12.6-2c-49.1-8-95.5-15.5-139.7-16.8
			c-32.6-0.9-77.6,2.1-130.4,8.8c-54.5,6.9-116,17.6-178,31c-54.2,11.7-102.3,17.7-142.8,17.7c-19.8,0-38.2-1.3-54.8-4
			c-16.3-2.7-31.3-6.7-44.5-12.1l-0.7,0.3c13.3,5.4,28.5,9.5,44.9,12.2c16.7,2.7,35.3,4.1,55.2,4.1c40.7-0.1,88.9-6.1,143.3-17.8
			c62-13.3,123.5-24,177.9-31c52.6-6.7,97.6-9.7,130-8.8c44.1,1.3,90.4,8.8,139.5,16.8l12.6,2c26.8,4.3,57.5,11.6,90,19.4
			c79.4,18.9,178.2,42.4,292,40.6c4-0.1,8.1-0.1,12.1-0.1c7.8,0,15.8,0,23.6-0.5c168-10.1,254-12.9,283.2-13.6L1391.8,111.5z"/>
	</g>
	<g>
		<path style="fill:#FFFFFF;" d="M1392.1,116.4c-10.5,0.3-23,0.7-37.5,1.1c-54.5,1.6-136.9,4.1-246.1,6.2
			c-7.7,0.2-15.3-0.1-23.4-0.4c-4.1-0.1-8.2-0.3-12.4-0.4c-47.4-1-96.5-5.6-150.2-14.2c-46.8-7.4-90.8-16.9-129.6-25.2
			c-37.2-8-72.4-15.5-102.8-19.7c-26.5-3.7-53.8-7.5-80.2-10.3c-28.9-3.1-52.3-4.6-73.7-4.8c-31.4-0.2-76.3,3.3-129.8,10.2
			c-52.8,6.8-113.8,16.8-176.7,29c-26.6,5.2-51.9,9-75.3,11.4c-23.2,2.4-45.2,3.5-65.2,3.2c-19.9-0.3-38.5-1.9-55.3-4.8
			c-16.7-2.9-32-7.2-45.5-12.7l-0.4,0.2c13.6,5.6,29,9.9,45.7,12.8c16.8,2.9,35.5,4.6,55.4,4.8c20.1,0.3,42-0.8,65.3-3.2
			c23.4-2.4,48.7-6.3,75.4-11.5C292.7,76,353.8,66,406.5,59.2C460,52.3,504.9,48.8,536.2,49c21.4,0.1,44.8,1.6,73.6,4.7
			c26.4,2.8,53.7,6.6,80.2,10.3c30.4,4.2,65.6,11.8,102.7,19.7c38.8,8.3,82.9,17.7,129.6,25.2c53.7,8.6,102.9,13.2,150.3,14.2
			c4.2,0.1,8.3,0.2,12.4,0.4c7.7,0.3,15.7,0.6,23.5,0.4c109.2-2.1,191.6-4.6,246.1-6.2c14.5-0.4,27-0.8,37.5-1.1L1392.1,116.4z"/>
	</g>
	<g>
		<path style="fill:#FFFFFF;" d="M1392.4,121.1c-33.4,1-135.2,4-283.9,1c-7.8-0.2-15.4-0.7-23.5-1.3c-4.1-0.3-8.3-0.6-12.5-0.8
			c-97.6-5.6-185.3-22.6-262.6-37.5C766,73.9,724.5,65.9,689,61.7c-52.6-6.2-108-12.2-155.7-11.3c-72.7,1.3-205.8,21.8-304.7,38.8
			c-51.8,8.9-98.1,12.8-137.8,11.6c-40-1.2-74.3-7.6-101.9-19l-0.7,0.3c27.8,11.5,62.3,17.9,102.6,19.1
			c39.8,1.2,86.4-2.7,138.3-11.7c98.8-17,231.8-37.4,304.4-38.7C580.8,50,636.1,56,688.7,62.2c35.4,4.2,76.9,12.2,120.7,20.7
			c77.4,15,165.2,31.9,262.9,37.6c4.2,0.2,8.4,0.5,12.5,0.8c8.1,0.6,15.8,1.1,23.6,1.3c148.8,3.1,250.5,0,284-1L1392.4,121.1z"/>
	</g>
	<g>
		<path style="fill:#FFFFFF;" d="M1392.6,125.7c-85.1,2.7-180.7,0.9-284.1-5.4c-7.9-0.5-15.7-1.3-24-2.2c-4-0.4-8.1-0.8-12.2-1.2
			c-85.3-8.1-165.1-22.1-235.5-34.5c-56.8-10-105.8-18.6-149.1-22.8c-50.3-4.9-108.4-9.6-157.5-7.5C468,54.8,354.2,71.6,233.8,89.5
			l-6.4,0.9C124.5,105.6,44.4,101.7-10.8,78.6l-1.1,0.5c55.6,23.2,136.3,27.3,239.8,11.9l6.4-0.9c120.4-17.8,234.1-34.7,296.2-37.3
			c48.8-2.1,106.8,2.6,157,7.5c43.1,4.2,92.1,12.8,148.8,22.8c70.4,12.4,150.3,26.5,235.7,34.5c4.1,0.4,8.2,0.8,12.2,1.2
			c8.3,0.9,16.1,1.7,24.1,2.2c103.5,6.3,199.2,8.1,284.4,5.4L1392.6,125.7z"/>
	</g>
	<g>
		<path style="fill:#FFFFFF;" d="M1392.9,130.4c-57.4,2-153.2,1.5-284.2-11.7c-8.3-0.8-16.4-2-25-3.2l-11.4-1.6
			c-64.9-8.5-125.7-18.6-184.5-28.3C810.4,73,743.6,62,686.6,57.6c-68.2-5.3-118.8-6.5-159.2-3.7c-39,2.7-98.5,10.8-167.4,20.2
			c-43,5.9-87.4,11.9-133.7,17.6C124.5,104.2,44.8,98.7-10.5,75.4l-1.4,0.7c55.9,23.6,136.2,29.1,238.8,16.5
			c46.3-5.7,90.8-11.8,133.8-17.6c68.8-9.4,128.2-17.5,167.1-20.1c40.2-2.8,90.6-1.6,158.6,3.7c56.8,4.4,123.5,15.4,200.7,28.1
			c58.8,9.7,119.7,19.7,184.7,28.3l11.4,1.6c8.6,1.2,16.8,2.3,25.2,3.2c131.3,13.2,227.4,13.7,284.9,11.7L1392.9,130.4z"/>
	</g>
	<g>
		<path style="fill:#FFFFFF;" d="M1393.1,135c-56.8,2.1-152.2,0.6-284.4-18c-9-1.3-18-2.8-27.4-4.4l-9.3-1.6l-45.9-7.8
			c-128-21.8-249-42.3-340.8-47.8c-65.3-3.9-119.5-3.9-161,0.1c-26.4,2.5-62.8,7.5-104.9,13.3c-55.7,7.7-125,17.2-194.3,24
			c-100.9,9.8-180.1,2.9-235.4-20.7L-12,73C44,96.8,123.9,103.9,225.8,94c69.4-6.7,138.8-16.3,194.5-24c42-5.8,78.3-10.8,104.6-13.3
			c41.2-3.9,95.1-3.9,160.1-0.1c91.5,5.5,212.3,26,340.2,47.7l45.9,7.8l9.2,1.6c9.5,1.6,18.5,3.2,27.6,4.5
			c132.6,18.7,228.4,20.1,285.4,18L1393.1,135z"/>
	</g>
	<g>
		<path style="fill:#FFFFFF;" d="M1393.4,139.7c-56.4,2.2-151.5-0.3-284.5-24.3c-11.5-2.1-23.2-4.5-35.4-7l-1.5-0.3
			C919.4,76.6,785.3,57.6,684.2,53.4C620.3,50.7,564,52,521.3,57.2c-17.8,2.2-40.2,5.5-66.1,9.3c-61.9,9.1-146.7,21.6-231,27.5
			C124,101,45.2,92.6-9.8,68.9l-2.2,1c55.8,24,135.4,32.6,236.7,25.5c84.6-5.9,169.5-18.4,231.5-27.5c25.9-3.8,48.2-7.1,66-9.3
			c42.3-5.2,98.2-6.5,161.7-3.8c100.8,4.2,234.5,23.1,386.8,54.6l1.5,0.3c12.3,2.5,24,4.9,35.6,7c133.5,24.1,229.2,26.6,285.9,24.4
			L1393.4,139.7z"/>
	</g>
	<g>
		<path style="fill:#FFFFFF;" d="M1393.6,144.4c-51.7,2.1-162.1-0.2-321.7-39.2C829.9,45.9,622.4,43.3,518.3,59
			c-11.2,1.7-24.1,3.8-39.1,6.2c-124.4,20.3-356,58-488.6,0.5l-2.6,1.2c134.3,58.2,367.3,20.3,492.5-0.1c14.9-2.4,27.8-4.5,39-6.2
			c103.4-15.6,309.7-12.9,550.7,46.1c160.4,39.2,271.7,41.5,323.8,39.4L1393.6,144.4z"/>
	</g>
</g>
<g style="opacity:0.38;">
	<g>
		<path style="fill:#FFFFFF;" d="M-7.2,170.3L-7.2,170.3c3.3-0.6,334.9-63.2,783.8,32.8c75.7,16.2,142.5,29.7,204.3,41.2
			c59.4,11.1,112.5,20.1,162.2,27.5c46.8,7,89.8,12.4,131.3,16.6c37.8,3.8,74.3,6.6,111.6,8.4l0.1-0.2c-37.2-1.9-73.7-4.6-111.4-8.4
			c-41.5-4.2-84.4-9.6-131.2-16.6c-49.7-7.4-102.8-16.4-162.2-27.5c-61.8-11.6-128.6-25-204.3-41.2
			c-54.2-11.6-109.4-21.5-164.2-29.3c-49.8-7.2-100.3-12.8-150.1-16.8c-83.9-6.8-167.5-9-248.4-6.7c-31.8,0.9-63.2,2.5-93.5,4.8
			c-24.2,1.8-47.7,4.1-69.7,6.7c-37.6,4.5-58.5,8.5-58.7,8.5L-7.2,170.3z"/>
	</g>
	<g>
		<path style="fill:#FFFFFF;" d="M-7.1,173.3c3.2-0.8,346.8-69.8,792,27.1c74.8,16.4,140.4,30,200.6,41.5
			c58.8,11.3,111.1,20.4,159.7,27.8c89.2,13.6,165.8,21.3,240.8,24.3l0.2-0.2c-74.9-3-151.4-10.7-240.5-24.3
			c-48.6-7.4-100.8-16.5-159.6-27.8c-60.2-11.6-125.8-25.1-200.5-41.5c-52.9-11.5-107.1-21.2-161.2-28.9
			c-49.2-7-99.4-12.4-149.2-16.2c-84-6.3-168.4-8-250.9-5.1c-32.5,1.2-64.8,3.1-96,5.7c-25.1,2.1-49.5,4.6-72.6,7.6
			c-41.9,5.3-63.4,9.8-63.6,9.8L-7.1,173.3z"/>
	</g>
	<g>
		<path style="fill:#FFFFFF;" d="M-7,176.3c3.4-0.8,368.1-75.1,800.3,21.4c147.9,33,260.5,55.2,354.4,69.8
			c89.6,13.9,165.3,21.5,238.4,23.6l0.1-0.3c-72.9-2.2-148.5-9.7-237.9-23.6c-93.9-14.6-206.5-36.8-354.3-69.8
			c-98.4-22-201.3-36.9-305.8-44.2c-84-5.9-169.2-7.1-253.4-3.4c-75.7,3.3-136.5,10.1-174.2,15.1C20,170.5-4.9,175.4-7.8,176.1
			L-7,176.3z"/>
	</g>
	<g>
		<path style="fill:#FFFFFF;" d="M-6.9,179.3c3.6-0.9,381.6-81.9,808.7,15.7c147.3,33.6,258,56,348.4,70.4
			c89.4,14.2,164.5,21.5,236.2,22.9l0.1-0.3c-139.8-2.7-298-28-583.7-93.2c-95.8-21.9-197.2-36.4-301.6-43.3
			c-84-5.5-170.1-6.1-255.8-1.7c-77.5,4-140.5,11.4-179.7,16.9c-43,6-69.3,11.4-73.5,12.4L-6.9,179.3z"/>
	</g>
	<g>
		<path style="fill:#FFFFFF;" d="M-6.8,182.3c3.8-0.9,402.3-86.9,817,9.9c289.1,67.5,439.9,91.9,576.3,93.2l0.1-0.4
			c-136-1.3-286.5-25.6-575.2-93.1c-93.2-21.8-193.2-36-297.3-42.3c-84-5.1-170.9-5.1-258.3,0c-79.3,4.6-144.5,12.7-185.2,18.7
			C25.2,175-2.9,180.9-7.9,182.1L-6.8,182.3z"/>
	</g>
	<g>
		<path style="fill:#FFFFFF;" d="M-6.7,185.3c1.7-0.4,179.7-40.2,420-40.1c146.1,0,282.5,15,405.3,44.3
			c147.9,35.4,251.6,57.4,336.2,71.5c45.2,7.5,85.6,12.9,123.5,16.4c37.7,3.5,73.1,5.2,108.3,5.1l0-0.4
			c-132.7,0.1-275.7-23.3-566.7-92.9c-123.2-29.5-260-44.4-406.6-44.5c-52.7,0-106.8,1.9-160.8,5.8c-43.8,3.1-87.8,7.5-130.6,13
			C39,174.2-7.6,184.9-8,185L-6.7,185.3z"/>
	</g>
	<g>
		<path style="fill:#FFFFFF;" d="M-6.6,188.4c1.9-0.4,199-44.7,448.5-44.2c140.8,0.2,270.3,14.6,385.1,42.7
			c148.9,36.5,247.7,58,330.1,72.1c44.7,7.6,84.6,13,122,16.4c37.5,3.4,72.7,4.9,107.7,4.5l-0.1-0.5c-145,1.7-301.8-29.9-558.2-92.7
			c-115.2-28.2-245.2-42.6-386.6-42.9c-54.9-0.1-111.7,2-168.8,6.2c-46.4,3.4-93.3,8.2-139.2,14.3C58.2,174.1,4.7,185-8.1,188
			L-6.6,188.4z"/>
	</g>
	<g>
		<path style="fill:#FFFFFF;" d="M-6.5,191.4c2.1-0.5,214.5-49.3,476.4-48.4c135.4,0.4,258.3,14.3,365.5,41.2
			c147.8,37.1,244.7,58.8,324,72.6c88.5,15.4,158.7,21.6,227.5,20.1l-0.2-0.6c-141.5,3.1-290-27.4-549.6-92.6
			c-107.6-27-231.1-40.9-367.2-41.4c-56.9-0.2-116.2,2-176.4,6.5c-48.9,3.7-98.6,8.9-147.6,15.5C49.8,177.5-7.6,190.9-8.1,191
			L-6.5,191.4z"/>
	</g>
	<g>
		<path style="fill:#FFFFFF;" d="M-6.3,194.4c2.3-0.5,234.4-53.9,503.6-52.7c130,0.6,246.5,14,346.5,39.7
			c148.5,38.2,240.6,59.4,317.9,73.2c87.7,15.6,157.2,21.6,225.4,19.4l-0.3-0.6c-137.6,4.4-284.1-26.2-541.1-92.4
			c-100.5-25.9-217.7-39.3-348.4-39.9c-58.7-0.3-120.4,2.1-183.4,6.9c-51.4,4-103.8,9.6-155.9,16.8c-86,11.9-149.2,25-166.3,29.1
			L-6.3,194.4z"/>
	</g>
	<g>
		<path style="fill:#FFFFFF;" d="M-6.2,197.4c2.5-0.6,254.6-58.7,530.3-57c124.5,0.8,235,13.6,328.2,38.3
			c259.8,68.6,398.8,98.3,535.1,92.4l-0.5-0.7c-135,5.8-273.4-23.8-532.5-92.2c-93.8-24.8-204.8-37.7-330.2-38.5
			c-60.2-0.4-124.1,2.1-189.9,7.3c-53.7,4.3-108.8,10.4-163.9,18.1C60.8,180.6-7.6,196.8-8.2,196.9L-6.2,197.4z"/>
	</g>
	<g>
		<path style="fill:#FFFFFF;" d="M-6.1,200.4c2.7-0.6,270.6-63.6,556.3-61.4c119.2,0.9,223.6,13.3,310.5,36.9
			c122.9,33.3,221.9,58.7,305.6,74.3c85.9,16,154.1,21.5,221.3,17.9l-0.7-0.7c-132.8,7.1-263.2-21.3-523.9-92.1
			c-87.4-23.7-192.6-36.2-312.7-37.2c-61.6-0.5-127.5,2.1-195.9,7.7c-55.9,4.5-113.6,11.1-171.8,19.5C67.3,182-7.5,199.7-8.3,199.9
			L-6.1,200.4z"/>
	</g>
	<g>
		<path style="fill:#FFFFFF;" d="M-6,203.4c2.9-0.7,291.3-68.5,581.6-65.8c113.9,1.1,212.6,13,293.4,35.6
			c124.9,34.8,218.5,59.5,299.5,74.9c84.9,16.2,152.5,21.5,219.2,17.2l-0.8-0.8c-130.1,8.3-258.5-20.3-515.4-91.9
			C790,150,690.5,138,575.7,136.9c-291.7-2.7-581.2,65.3-584,66L-6,203.4z"/>
	</g>
	<g>
		<path style="fill:#FFFFFF;" d="M-5.9,206.5c3.1-0.7,312.3-73.5,606.3-70.2c108.6,1.2,201.8,12.7,277,34.3
			c126.3,36.2,214.8,60.2,293.3,75.5c83.9,16.4,150.9,21.4,217.2,16.5l-1.1-0.8c-133.7,10-263.1-21.8-506.8-91.7
			c-75.8-21.8-169.9-33.4-279.5-34.6c-63.7-0.7-133.2,2.1-206.5,8.4c-60,5.1-122.9,12.6-186.9,22.1C80.7,184.8-4.8,205-8.4,205.9
			L-5.9,206.5z"/>
	</g>
	<g>
		<path style="fill:#FFFFFF;" d="M-5.8,209.5c3.8-0.9,95.7-22.6,227.3-42.6c66.7-10.1,131.8-18,193.4-23.4
			c75.2-6.6,145.7-9.5,209.7-8.7c103.5,1.3,191.4,12.4,261.2,33.1c124.4,36.7,211.2,60.9,287.2,76.1
			c82.9,16.5,149.2,21.4,215.2,15.7l-1.3-0.8c-131.4,11.3-258.7-20.8-498.2-91.5c-70.5-20.8-159.3-32.1-263.9-33.4
			c-64.5-0.8-135.5,2.1-211.2,8.8c-61.9,5.4-127.2,13.3-194.1,23.5c-132,20-224.1,41.8-227.9,42.7L-5.8,209.5z"/>
	</g>
	<g>
		<path style="fill:#FFFFFF;" d="M-5.7,212.5c4.1-1,102.7-24.3,239.7-45.4c69.5-10.7,137-19.1,200.4-24.8c77.3-6.9,149.2-10,213.7-9
			c98.4,1.4,181.2,12.2,246,31.9c125.2,38.1,207,61.6,281,76.7c81.8,16.7,147.6,21.3,213.2,15l-1.5-0.9
			c-136.7,13.2-275.1-26.1-489.5-91.4c-65.6-19.9-149.3-30.8-248.9-32.2c-119.3-1.7-259.4,9.7-416.6,34
			C94.4,187.4-4.4,210.8-8.5,211.8L-5.7,212.5z"/>
	</g>
	<g>
		<path style="fill:#FFFFFF;" d="M-5.6,215.5C9.6,211.9,371,126.8,671,131.7c93.5,1.5,171.4,11.9,231.5,30.7
			c103.6,32.5,195.8,60.8,274.8,77.3c80.7,16.9,145.9,21.3,211.3,14.2l-1.7-0.9c-135.2,14.5-264.3-23.2-480.9-91.2
			c-60.8-19.1-139.8-29.6-234.6-31.1c-120.1-2-263.8,10.1-427.2,35.7c-140.2,22-241.6,45.8-252.7,48.4L-5.6,215.5z"/>
	</g>
	<g>
		<path style="fill:#FFFFFF;" d="M-5.5,218.5c16.1-3.8,398.3-93.9,698.8-88.5c88.7,1.6,162,11.6,217.6,29.6
			c213.5,69.2,341,107.6,477.9,91.4l-2-0.9c-133.7,15.8-260.2-22.3-472.3-91.1c-56.4-18.3-130.7-28.4-220.8-30
			C391.2,123.5,7.5,213.9-8.6,217.8L-5.5,218.5z"/>
	</g>
	<g>
		<path style="fill:#FFFFFF;" d="M-5.4,221.5c17-4,420.3-99.1,720.5-93.1c84.1,1.7,152.8,11.3,204.2,28.5
			c209,70,333.9,108.8,469.8,91.2l-2.3-1c-132.4,17.2-256.2-21.4-463.7-90.9c-52.3-17.5-122.1-27.3-207.7-29
			c-302.3-6-707.1,89.4-724.2,93.4L-5.4,221.5z"/>
	</g>
	<g>
		<path style="fill:#FFFFFF;" d="M-5.3,224.5c17.9-4.3,442.4-104.4,741.5-97.8c79.6,1.7,144,11,191.5,27.5
			c204.3,70.9,326.5,110.1,461.6,91.1l-2.5-1c-131.4,18.5-252.4-20.4-455-90.7c-48.3-16.8-114-26.2-195.1-28
			c-120.6-2.6-273.9,11.1-455.7,41C125.8,192,4.6,220.5-8.8,223.7L-5.3,224.5z"/>
	</g>
	<g>
		<path style="fill:#FFFFFF;" d="M-5.2,227.6c18.8-4.5,464.5-109.6,761.9-102.5c75.2,1.8,135.6,10.7,179.3,26.4
			c199.5,71.8,318.9,111.4,453.5,90.9l-2.8-1c-130.5,19.8-248.7-19.4-446.4-90.6c-44.7-16.1-106.3-25.1-183.1-27
			c-120.2-2.9-276.4,11.5-464.1,42.8c-156.6,26.1-279,54.6-302,60.1L-5.2,227.6z"/>
	</g>
	<g>
		<path style="fill:#FFFFFF;" d="M-5,230.6c49.5-11.8,491.8-114.8,781.8-107.3c71,1.8,127.4,10.4,167.7,25.4
			c151.6,56.6,250.7,91.3,349.7,96.1c32.5,1.6,63.8-0.2,95.6-5.4l-3.1-1.1c-30.5,5-60.5,6.7-91.5,5.2
			c-96.9-4.7-195.4-39.2-346.2-95.6c-41.2-15.4-98.9-24.1-171.7-26c-119.6-3.1-278.4,11.9-472,44.6c-161.1,27.2-290,57.3-314.2,63.1
			L-5,230.6z"/>
	</g>
	<g>
		<path style="fill:#FFFFFF;" d="M-4.9,233.6c51.8-12.3,514.1-120.1,801.1-112c67,1.9,119.7,10.1,156.6,24.5
			c146.9,57.1,243.2,92,341.3,96.6c32.6,1.5,64-0.4,96-6l-3.3-1.1c-30.6,5.3-60.6,7.2-91.5,5.8c-95.6-4.5-195.7-40.9-337.5-96
			c-37.9-14.7-92-23.2-160.8-25.1C507.1,112.1,43,220.3-8.9,232.6L-4.9,233.6z"/>
	</g>
	<g>
		<path style="fill:#FFFFFF;" d="M-4.8,236.6c54.1-12.9,536.4-125.4,819.9-116.8c63,1.9,112.2,9.8,146.1,23.5
			c137.9,55.8,235.6,92.7,332.7,97.1c32.7,1.5,64.2-0.7,96.4-6.7l-3.6-1.1c-30.7,5.7-60.7,7.8-91.7,6.4
			c-94.7-4.3-191.7-41-328.8-96.5c-34.9-14.1-85.5-22.3-150.4-24.2C529.5,109.7,45.3,222.7-9,235.6L-4.8,236.6z"/>
	</g>
	<g>
		<path style="fill:#FFFFFF;" d="M-4.7,239.6c56.4-13.4,558.8-130.8,838.2-121.7c59.3,1.9,105.1,9.5,136.1,22.6
			c133.1,56.2,227.6,93.4,324.2,97.6c32.8,1.4,64.5-1,96.8-7.3l-3.9-1.1c-30.9,6.1-60.9,8.4-91.8,7c-94-4.1-187.7-41.1-320-96.9
			c-32-13.5-79.3-21.4-140.6-23.4c-116.3-3.8-282.1,13.1-492.8,50.1C172.2,196.3,30.4,229.2-9,238.6L-4.7,239.6z"/>
	</g>
	<g>
		<path style="fill:#FFFFFF;" d="M-4.6,242.6c58.7-14,581.3-136.1,855.9-126.6c55.7,1.9,98.3,9.3,126.6,21.8
			c124.2,54.9,219.5,94.1,315.5,98.2c33,1.4,64.8-1.2,97.4-8l-4.2-1.1c-31,6.5-61.2,9-92.1,7.7c-93.2-4-187.7-42.9-311.1-97.4
			c-29.3-12.9-73.4-20.5-131.3-22.5c-114.8-4-282.6,13.5-498.8,51.9C180.4,197.3,32.2,231.7-9.1,241.6L-4.6,242.6z"/>
	</g>
	<g>
		<path style="fill:#FFFFFF;" d="M-4.5,245.6C95,222,604.8,104.4,868.7,114.2c52.3,1.9,91.8,9,117.6,20.9
			c119.2,55.2,211,94.7,306.8,98.7c33.1,1.4,65.2-1.5,98-8.7l-4.5-1.1c-31.2,6.9-61.4,9.6-92.3,8.3c-92.7-3.9-187.6-44.8-302.1-97.9
			c-26.8-12.4-68-19.7-122.4-21.8c-113.1-4.2-282.8,13.9-504.4,53.8C188.7,198.2,34,234.3-9.2,244.5L-4.5,245.6z"/>
	</g>
	<g>
		<path style="fill:#FFFFFF;" d="M-4.3,248.7C99,224.1,627.2,102,885.6,112.3c48.9,1.9,85.6,8.7,109,20.1
			c110.4,53.8,202.5,95.3,298.2,99.2c33.3,1.4,65.6-1.7,98.7-9.4l-4.9-1.2c-31.3,7.3-61.6,10.2-92.6,8.9
			c-92.4-3.8-183.5-44.9-293-98.3c-24.4-11.9-62.8-19-114.1-21C625,100.3,94.4,222.8-9.3,247.5L-4.3,248.7z"/>
	</g>
</g>
</svg>
