<?xml version="1.0" encoding="utf-8"?>
<!-- Generator: Adobe Illustrator 15.1.0, SVG Export Plug-In . SVG Version: 6.00 Build 0)  -->
<!DOCTYPE svg PUBLIC "-//W3C//DTD SVG 1.1//EN" "http://www.w3.org/Graphics/SVG/1.1/DTD/svg11.dtd">
<svg version="1.1" id="Ebene_1" xmlns="http://www.w3.org/2000/svg" xmlns:xlink="http://www.w3.org/1999/xlink" x="0px" y="0px"
	 width="16px" height="16px" viewBox="0 0 16 16" style="enable-background:new 0 0 16 16;" xml:space="preserve">
<title>Smiling</title>
<desc>Smiling Smiley</desc>
<g id="SmileyBody">
	<g id="YellowBody">
		<path style="fill:#FFFFFF;" d="M0,8.6c0-4.1,3.4-7.4,7.5-7.4S15,4.5,15,8.6c0,4.1-3.4,7.4-7.5,7.4S0,12.7,0,8.6z"/>
		<g>
			<path id="Frame" style="fill:#CC9933;" d="M0,7.5C0,3.4,3.4,0,7.5,0C11.6,0,15,3.4,15,7.5c0,4.1-3.4,7.5-7.5,7.5
				C3.4,15,0,11.6,0,7.5z"/>
			
				<radialGradient id="Inner_1_" cx="2.0742" cy="6.668" r="6.964" gradientTransform="matrix(1.0052 0 0 -1.0052 5.3786 12.4148)" gradientUnits="userSpaceOnUse">
				<stop  offset="0" style="stop-color:#FFFFFF"/>
				<stop  offset="0.4724" style="stop-color:#FFF57A"/>
				<stop  offset="0.6077" style="stop-color:#FFF477"/>
				<stop  offset="0.7136" style="stop-color:#FFF06D"/>
				<stop  offset="0.8096" style="stop-color:#FEEB5C"/>
				<stop  offset="0.8998" style="stop-color:#FDE345"/>
				<stop  offset="0.985" style="stop-color:#FCD827"/>
				<stop  offset="1" style="stop-color:#FCD621"/>
			</radialGradient>
			<path id="Inner" style="fill:url(#Inner_1_);" d="M0.5,7.5c0-3.9,3.1-7,7-7c3.9,0,7,3.1,7,7c0,3.9-3.1,7-7,7
				C3.6,14.5,0.5,11.4,0.5,7.5z"/>
		</g>
	</g>
</g>
<g id="SmileyFace">
	<g id="SmilingSmiley">
		<g id="Mouth">
			<path style="fill:#666633;" d="M7.5,10.5c-2.5,0-3.8-1.3-3.8-1.3C3.3,8.8,3.1,8.9,3.3,9.5c0,0,0.7,2.5,4.2,2.5
				c3.5,0,4.2-2.5,4.2-2.5c0.2-0.5,0-0.6-0.4-0.3C11.3,9.2,10,10.5,7.5,10.5z"/>
		</g>
		<g id="RightEye">
			<path style="fill:#666633;" d="M11,6c0,0.5-0.5,1-1,1l0,0C9.5,7,9,6.5,9,6V5c0-0.5,0.5-1,1-1l0,0c0.5,0,1,0.5,1,1V6z"/>
		</g>
		<g id="LeftEye">
			<path style="fill:#666633;" d="M6,6c0,0.5-0.5,1-1,1l0,0C4.5,7,4,6.5,4,6V5c0-0.5,0.5-1,1-1l0,0c0.5,0,1,0.5,1,1V6z"/>
		</g>
	</g>
</g>
</svg>
