<?xml version="1.0" encoding="iso-8859-1"?>
<!DOCTYPE svg PUBLIC "-//W3C//DTD SVG 1.1//EN" "http://www.w3.org/Graphics/SVG/1.1/DTD/svg11.dtd">
<svg version="1.1" xmlns="http://www.w3.org/2000/svg" xmlns:xlink="http://www.w3.org/1999/xlink" height="17" width="17" xml:space="preserve">
	
	<!-- Copyright 2011–2015 KittMedia Productions -->
	<!-- Licensed under GNU Lesser General Public License, version 2.1 (LGPL-2.1) -->
	
	<radialGradient id="SVGID_1_" cx="6.3327" cy="6.756" r="9.105" gradientUnits="userSpaceOnUse">
		<stop offset="0" style="stop-color:#FFFF98"/>
		<stop offset="1" style="stop-color:#FFD314"/>
	</radialGradient>
	
	<path style="fill:url(#SVGID_1_);" d="M8.5,16.5c-4.411,0-8-3.589-8-8s3.589-8,8-8s8,3.589,8,8S12.911,16.5,8.5,16.5z"/>
	<path style="fill:#CDA70C;" d="M8.5,1C12.636,1,16,4.364,16,8.5S12.636,16,8.5,16S1,12.636,1,8.5S4.364,1,8.5,1 M8.5,0C3.806,0,0,3.806,0,8.5C0,13.194,3.806,17,8.5,17S17,13.194,17,8.5C17,3.806,13.194,0,8.5,0L8.5,0z"/>
	<path style="fill:none;stroke:#655919;stroke-width:0.75;stroke-miterlimit:10;" d="M4.5,5c0,0.829,0.782,1.5,1.75,1.5"/>
	<path style="fill:none;stroke:#655919;stroke-width:0.75;stroke-miterlimit:10;" d="M8,5c0,0.829-0.783,1.5-1.75,1.5"/>
	<path style="fill:none;stroke:#655919;stroke-miterlimit:10;" d="M4.5,10.5c0,1.382,1.789,2.5,4,2.5"/>
	<path style="fill:none;stroke:#655919;stroke-miterlimit:10;" d="M12.5,10.5c0,1.382-1.789,2.5-4,2.5"/>
	<rect x="9.75" y="5" style="fill:#655B20;" width="2" height="2"/>
</svg>