<?xml version="1.0" encoding="utf-8"?>
<!DOCTYPE svg PUBLIC "-//W3C//DTD SVG 1.1//EN" "http://www.w3.org/Graphics/SVG/1.1/DTD/svg11.dtd">
<svg version="1.1" id="Ebene_1" xmlns="http://www.w3.org/2000/svg" xmlns:xlink="http://www.w3.org/1999/xlink" x="0px" y="0px"
	 width="24px" height="15px" viewBox="0 0 24 15" enable-background="new 0 0 24 15" xml:space="preserve">
	 
	 <!--
		@author		Robert Swiderski
		@copyright	Robert Swiderski
		@license	Public Domain
	 -->
	 
    <rect width="24" height="15" fill="#FF0000"/>
    <rect width="12" height="15" fill="#FFFFFF" x="6"/>
    <path fill="#ff0000" d="m 11.99981472,1.40625 -0.81871488,1.9087587 c -0.09290064,0.2074503 -0.25935048,0.1882089 -0.42580056,0.0723414 l -0.59272776,-0.3836574 0.4417692,2.9318133 c 0.09290064,0.5356257 -0.20516616,0.5356257 -0.3522636,0.3040305 l -1.0344252,-1.4475297 -0.16793712,0.73509 c -0.01936608,0.0965331 -0.10451544,0.1979232 -0.23225952,0.1737783 l -1.30804248,-0.3437736 0.34356576,1.5613425 c 0.07354824,0.3474162 0.1309176,0.4912584 -0.07425,0.5828877 l -0.46622856,0.2739075 2.25171048,2.2862514 c 0.089124,0.0864453 0.13415304,0.24201 0.10242432,0.382863 l -0.19707264,0.8084121 c 0.7752972,-0.1117113 1.46997552,-0.2797782 2.24566536,-0.3832857 0.06847752,-0.0091377 0.18311712,0.1321224 0.18264696,0.2313174 l -0.10272576,2.9617026 0.37695336,0 -0.05933688,-2.955351 c -0.0004728,-0.099195 0.10352928,-0.2468067 0.1720068,-0.237669 0.77568984,0.1035078 1.47036912,0.2715744 2.24566608,0.3832857 l -0.19707216,-0.8084121 c -0.03172872,-0.140853 0.01330008,-0.2964177 0.10242408,-0.382863 l 2.25171,-2.2862514 -0.46622808,-0.2739075 c -0.20516808,-0.0916293 -0.14779872,-0.2354715 -0.07425048,-0.5828877 l 0.34356648,-1.5613425 -1.3080432,0.3437736 c -0.12774408,0.0241449 -0.21289344,-0.0772452 -0.23226,-0.1737783 l -0.16793688,-0.73509 -1.03442472,1.4475297 c -0.14709792,0.2315952 -0.44516496,0.2315952 -0.2201652,-0.3040305 l 0.44176848,-2.9318133 -0.59272656,0.3836574 c -0.16645416,0.1158675 -0.33289992,0.1351089 -0.4258008,-0.0723414" />
</svg>