<?xml version="1.0" encoding="utf-8"?>
<!-- Generator: Adobe Illustrator 15.1.0, SVG Export Plug-In . SVG Version: 6.00 Build 0)  -->
<!DOCTYPE svg PUBLIC "-//W3C//DTD SVG 1.1//EN" "http://www.w3.org/Graphics/SVG/1.1/DTD/svg11.dtd">
<svg version="1.1" id="Layer_1" xmlns="http://www.w3.org/2000/svg" xmlns:xlink="http://www.w3.org/1999/xlink" x="0px" y="0px"
	 width="512px" height="512px" viewBox="0 0 512 512" style="enable-background:new 0 0 512 512;" xml:space="preserve">
<circle cx="255" cy="257" r="91.1"/>
<path d="M254.5,148.4L254.5,148.4l220.2,0C434.6,67.6,351.3,12,255,12c-78,0-147.4,36.4-192.3,93.2l84,143.7
	C150.9,192.9,197.5,148.7,254.5,148.4z M255,365.6c-47,0-87-29.8-102.1-71.6L51.5,120.6C25.3,159.6,10,206.5,10,257
	c0,123.3,91.1,225.3,209.7,242.5l84.5-145.7C289.5,361.3,272.7,365.6,255,365.6z M482.5,165.9H314.1c29.8,19.4,49.5,52.9,49.5,91.1
	c0,18.8-4.8,36.4-13.2,51.9l0.1,0L238.7,501.5c5.4,0.4,10.8,0.5,16.3,0.5c135.3,0,245-109.7,245-245
	C500,224.8,493.8,194,482.5,165.9z"/>
</svg>
