<?xml version="1.0" encoding="utf-8"?>
<!-- Generator: Adobe Illustrator 15.1.0, SVG Export Plug-In . SVG Version: 6.00 Build 0)  -->
<!DOCTYPE svg PUBLIC "-//W3C//DTD SVG 1.1//EN" "http://www.w3.org/Graphics/SVG/1.1/DTD/svg11.dtd">
<svg version="1.1" id="Layer_1" xmlns="http://www.w3.org/2000/svg" xmlns:xlink="http://www.w3.org/1999/xlink" x="0px" y="0px"
	 width="512px" height="512px" viewBox="0 0 512 512" style="enable-background:new 0 0 512 512;" xml:space="preserve">
<path style="fill:#3DFF1F;" d="M418.1,77.8c-1.3-1.3-2.7-2.6-4.1-3.9C415.4,75.1,416.7,76.4,418.1,77.8z"/>
<path d="M22.4,208.8c0,0-0.7,0.8-1.7,2.2c-0.1,0.8-0.3,1.5-0.4,2.3C20.9,211.5,21.6,210,22.4,208.8z"/>
<path d="M91,98.1c0.4-0.5,0.9-0.9,1.3-1.4C113,76,137.1,59.8,163.9,48.5c27.7-11.7,57.2-17.7,87.6-17.7c28.7,0,56.5,5.3,82.9,15.8
	c15.4,2.7,35.9,7.8,53,17.5C349,36.8,302.1,20.8,251.4,20.8c-65.7,0-125,26.9-167.7,70.4C85.8,93.6,88.2,95.9,91,98.1z"/>
<path d="M174.4,274.8c-1.6-1.4-3-2.8-4.2-4.3c-0.4,3.4-0.7,7-0.7,10.8c0,7.1,0.9,14.7,3.3,22.2c2.4,7.6,6.3,15.1,12.5,22
	c4.1,4.6,9.3,9.1,15.7,13.1l-0.4,0.6c12.1,0.2,31.8,0,41.7-3.3c15-5,39-24,39-24c6-6,13-3,19-3s8-9,0-18s-36-18-57-4
	C222.4,300.8,192.4,289.8,174.4,274.8z M188.9,142.8c-1.3,5-2.5,11.3-2.5,18.2c0,6.9,1.2,14.4,4.4,21.8c2.6,5.9,5.1,10.2,7.3,13.7
	c1.6,2.4,3.1,4.5,4.4,6.3c2.8-2.6,6.1-5.2,8.8-7c6-4,29-15,32-18s9-19,4-24s-37-2-47-4C196.2,149,192.2,146,188.9,142.8z
	 M195.4,240.7c0,0.1,0,0.1,0,0.1c0-0.1,0.1-0.2,0.1-0.2L195.4,240.7z M491.4,195.8c0,8.1-7.3,19.5-8.8,21.6
	c0.3-0.8,0.8-3.1,0.8-10.6c0-11,3-39-11-70s-35-46-35-46v7c-3-10-31-29-31-29v10c50,46,55,78,55,78c-9-29-35-51-57-72
	c-22-21-68-32-68-32c49,28,73,72,73,72c-25-24-45-22-45-22c15,11,22,23,36,45c14,22,13,74,13,74c-7-17-21-24-21-24s3,30,5,47
	c2,17-7,49-7,49c0-12-7-15-7-15s2,7-8,39s-29,43-32,42s0-6,0-6s-5-4-12,7c-5.9,9.3-16.1,14.3-19.1,15.6c3.3-1.9,4.1-8.6,4.1-8.6
	s-7,4-39,9c-32,5-47-9-47-9c3-3,17,0,17,0c0-3-16-8-32-10c-13-1.6-19.3-7.7-22.3-12.5c-6-4-11-8.5-15.2-13.2
	c-4.8-5.4-8.4-11.1-11.2-16.9c-5.5-11.6-7.2-23.5-7.2-34c0-9.9,1.5-18.7,3.1-25c1.5-6.3,3.1-10.2,3.2-10.3l0,0l0.2,0.1
	c1.9-5.8,5.6-10.4,9.9-12.3c-1.4-0.9-2.8-1.8-4.2-2.6c-6.5-3.5-13.9-4.9-21.2-3.7c-7.3,1.2-14.3,4.8-20.5,9.5
	c-6,4.5-10.7,11-13.8,18.1c-3.1,7.2-4.7,15.1-4.7,23c0,8,1.6,15.9,4.4,23.5c2.9,7.5,7,14.6,12.1,21c5,6.4,11,12.2,17.4,17.3
	c-6.7-4.8-12.9-10.2-18.4-16.4c-5.5-6.2-10.2-13.2-13.6-20.8c-3.4-7.6-5.6-15.9-6-24.4c-0.5-8.5,0.7-17.1,3.7-25.2
	c3-8.1,7.8-15.6,14.6-21.5c3.3-2.8,6.9-5.3,10.8-7.3c3.9-2.1,8.1-3.7,12.5-4.6c4.4-0.9,9.1-1.1,13.6-0.5c4.5,0.6,8.9,2,13,3.9
	c4.1,1.9,7.8,4.4,11.3,7.2c1.7,1.4,3.4,2.9,4.9,4.5c0.8,0.8,1.6,1.6,2.3,2.4c0.6,0.7,1.2,1.4,1.8,2.2c3.6-9.2,1.1-24.7,0.5-27.9
	c-1.9-2.7-4.6-6-7.6-10.8c-2.3-3.6-4.7-8.1-7.2-13.7c-3.9-8.9-5.3-17.8-5.3-25.8c0-9.4,1.8-17.7,3.6-23.6c0.6-1.8,1.1-3.5,1.6-4.8
	c5.7-24.6,32.7-48.8,32.7-48.8c-38-5-64,30-64,30c-0.1-0.1-0.2-0.1-0.3-0.2c-2.7,3-11.8,13.7-12.7,22.2c0,0,0.3-15.3,4.1-26
	c-14.5-4.6-31.6-2.2-40.3-0.4l0.1,0.3c-9,1.6-17.2,5.1-24.4,9.4c-7.3,4.3-13.6,9.6-18.8,14.6c-10.4,10.1-16.3,19.6-16.4,19.7l0,0
	l0,0l-0.3-0.2c-18.4,26.7-30,83.6-30,83.6c2-9,11-20,11-20c-10,15-8,84-8,84c0-11,6-24,6-24c2,23,12,97,77,153s120,61,120,61
	c-13-4-16-10-16-10c42,17,68,14,68,14c-7-4-8-7-8-7c45,2,105-14,119-24s26-30,26-30c36-17,61-52,68-70s0-37,0-37s0-1,17-39
	S491.4,195.8,491.4,195.8z M71.6,110.6c4.2-2.5,8.8-4.8,13.6-6.7c-19.3-16-17.8-37.2-17.8-37.2c-19.3,18.6-24,50-25,69
	c0.3-0.3,0.5-0.6,0.8-1C49.8,127.3,59.3,118,71.6,110.6z"/>
</svg>
