<?xml version="1.0" encoding="utf-8"?>
<!-- Generator: Adobe Illustrator 15.1.0, SVG Export Plug-In . SVG Version: 6.00 Build 0)  -->
<!DOCTYPE svg PUBLIC "-//W3C//DTD SVG 1.1//EN" "http://www.w3.org/Graphics/SVG/1.1/DTD/svg11.dtd">
<svg version="1.1" id="Layer_1" xmlns="http://www.w3.org/2000/svg" xmlns:xlink="http://www.w3.org/1999/xlink" x="0px" y="0px"
	 width="512px" height="512px" viewBox="0 0 512 512" style="enable-background:new 0 0 512 512;" xml:space="preserve">
<path d="M499.2,263.5c0-36.7-9-71.4-24.8-101.8c4.5-11.4,9.8-27,15.5-48c18.5-67.9-24.1-108.4-89.4-101.8
	c-39.7,4-77.1,14.8-113.2,31c-2.9-0.1-5.8-0.2-8.8-0.2c-108.7,0-199.1,78.6-217.4,182c45.4-65.6,111.7-100.4,111.7-100.4
	c-45.2,47.4-84.3,94-113.2,143.2c-0.6,0.9-1.1,1.8-1.6,2.7c-24.2,41.6-41.1,85.1-48.4,132.5c-10,64.9,22.6,99.6,92.3,89.7
	c24-3.4,67.3-24.3,79.6-30.4c29.3,14.3,62.2,22.4,97,22.4c96.1,0,177.9-61.4,208.2-147.2H367.1c-17,29.6-48.8,49.5-85.4,49.5
	c-52.7,0-95.8-41.5-98.2-93.7h313.7C498.5,283.3,499.2,273.5,499.2,263.5z M103.1,476.3c-37.3,3.9-85.4-36.7-30.5-132.8
	c17.7,45.5,50.1,83.7,91.3,108.8C152.5,458.7,123.2,474.1,103.1,476.3z M184.2,227.4c6.2-48.3,47.5-85.6,97.5-85.6
	c50,0,91.3,37.3,97.5,85.6H184.2z M361.1,58.7c93.1-43.6,126.9,3,116.7,50.5c-1.4,6.5-6.5,24-11.1,39
	C442.1,108.2,405.1,76.5,361.1,58.7z"/>
</svg>
