<?xml version="1.0" encoding="utf-8"?>
<!-- Generator: Adobe Illustrator 15.1.0, SVG Export Plug-In . SVG Version: 6.00 Build 0)  -->
<!DOCTYPE svg PUBLIC "-//W3C//DTD SVG 1.1//EN" "http://www.w3.org/Graphics/SVG/1.1/DTD/svg11.dtd">
<svg version="1.1" id="Ebene_1" xmlns="http://www.w3.org/2000/svg" xmlns:xlink="http://www.w3.org/1999/xlink" x="0px" y="0px"
	 width="512px" height="512px" viewBox="0 0 512 512" style="enable-background:new 0 0 512 512;" xml:space="preserve">
<g id="Layer_2">
</g>
<g id="Layer_1">
	<polygon points="384.5,253 388.6,253 382.5,260 377.5,259 	"/>
	<path d="M384.5,263l2,3l2,5h6l3-4h5l1,6l6,3c0,0,5-3,7-4c2-1-2,15.1-4,18.1c-2,3-6,9-6,11s-4,6-5,7c-1,1-11,1-10-1c1-2,1-3,1-3
		l-11-4l-2-21.1v-8l-3-1l2-5l4,3L384.5,263z"/>
	<polygon points="364.5,293.2 366.5,293.2 367.5,303.2 362.4,308.2 362.4,315.2 358.4,314.2 358.4,307.2 361.4,303.2 	"/>
	<polygon points="347.4,273.1 336.3,279.1 328.3,291.1 332.3,293.2 	"/>
	<path d="M266,90.3l9,2h3L260,107.4l-14.1,8l-1-6c0,0,2-5,5-7c3-2,11-10,12.1-11C263,90.3,266,90.3,266,90.3z"/>
	<path d="M286.1,91.3c0,0-1,4,1,5c2,1,5,1,6,1c1,0,4-1,4-1l-2-3L286.1,91.3z"/>
	<polygon points="269.1,106.4 274.1,105.4 275.1,111.4 272.1,113.4 267.1,111.4 	"/>
	<path d="M428.4,229.6c-3.7-61.9-44.4-113.9-100.3-134.2l-14.9,0.9l-5,5l-6-5v6l3,3l-2,1l-10,2l-26.1,12l2,13.1l-2-1l-2,4l7,13.1
		l-1,3l-5,1l1,9h-4v7l-33.1,26.1l1,10l21.1,23.1l20.1-1l10-1v8l4,10l3,8v20.1l6,12l7,18.1l16.1-3l6-6l10-19.1l19.1-14.1l3-10
		l21.1-20.1l1,7l6,1l1-10l-4-6l-8-4l9-2l4,1v-5l5,2l-2,7l-1,7l4,3c0,0,2-3,5-6c3-3,9-6,11-4c2,2-1,13.1-1,13.1l-3,4l-2,8l-3-1l-2-7
		h-5l-3,8l5,5h9l8-8c0,0-3-18.1,4-16.1c7,2,5,18.1,5,18.1L428.4,229.6z M285.1,169.6c-1,0-9,0-9,0l5-4l4-4c1,0,9,2,9,2l7,5l-3,3
		C298.2,171.7,286.1,169.6,285.1,169.6z M332.3,169.6l-1,2l-8,1l-1,3l-6,1l-1,2l-10-3l-4-2l5-4l1-3h3l2,2l8-1l2-4l7,3l6,1
		L332.3,169.6z M340.4,159.6l-5,2l-6,2l-1-4l6-2l1-4l5,5V159.6z M363.4,223.9c0,0-5-12-7-15.1c-2-3-12-20.1-12-20.1
		s11,13.1,15.1,19.1c4,6,7,12,7,12l3,4H363.4z"/>
	<path d="M297.2,375.5l-4,1v3l-6-2l-3-6l-6,3l-6,4l-10-2l-2-3l-18.1-1l-5,4l-5-2l1-6l-6-1l-3,7l-15.1-1l9.1,6.6
		c17.9,7.4,37.6,11.5,58.1,11.5c15.4,0,30.2-2.3,44.2-6.5v-4.5h-15.1L297.2,375.5z"/>
	<g>
		<path d="M71.9,26.1l18.2,18.3L82.5,52L64.3,33.8L71.9,26.1 M71.9,13.2c-0.8,0-1.5,0.3-2.1,0.9L52.3,31.6c-1.2,1.2-1.2,3.1,0,4.2
			l28.1,28.2c0.6,0.6,1.4,0.9,2.1,0.9c0.8,0,1.5-0.3,2.1-0.9l17.5-17.5c1.2-1.2,1.2-3.1,0-4.2L74.1,14.1
			C73.5,13.5,72.7,13.2,71.9,13.2L71.9,13.2z"/>
	</g>
	<g>
		<path d="M466.8,421.8l18.2,18.3l-7.6,7.6l-18.2-18.3L466.8,421.8 M466.8,408.9c-0.8,0-1.5,0.3-2.1,0.9l-17.5,17.5
			c-1.2,1.2-1.2,3.1,0,4.2l28.1,28.2c0.6,0.6,1.4,0.9,2.1,0.9c0.8,0,1.5-0.3,2.1-0.9l17.5-17.5c1.2-1.2,1.2-3.1,0-4.2l-28.1-28.2
			C468.3,409.2,467.6,408.9,466.8,408.9L466.8,408.9z"/>
	</g>
	<path d="M310,422.6L294.3,489h-46l-12.6-67.7c-3.6-0.8-7.2-1.7-10.7-2.7l14,75.5c0.5,2.7,3.2,4.9,5.9,4.9h52.3
		c2.8,0,5.5-2.2,6.2-4.9l17.5-73.8C317.3,421.2,313.7,422,310,422.6z"/>
	<path d="M171.9,393.9l-62.2,38.3l-32.6-32.6l41.4-60.3c-2-3.1-3.8-6.2-5.6-9.4L67,396.8c-1.6,2.3-1.2,5.7,0.7,7.7l37,37
		c1.2,1.2,2.9,1.8,4.6,1.8c1.1,0,2.3-0.3,3.2-0.9l68.8-42.4C178.1,398,175,396,171.9,393.9z"/>
	<path d="M92.2,272L21,255.1v-46l73.4-13.6c0.9-3.6,1.8-7.2,2.9-10.7l-81.4,15.1c-2.7,0.5-4.9,3.2-4.9,5.9V258
		c0,2.8,2.2,5.5,4.9,6.2l78.7,18.7C93.7,279.3,92.9,275.7,92.2,272z"/>
	<path d="M119.8,136.6L79.9,71.9l32.6-32.6l62.2,42.8c3.1-2,6.2-3.9,9.4-5.7l-68.7-47.2c-1-0.7-2.2-1-3.3-1c-1.6,0-3.2,0.6-4.3,1.7
		l-36.9,37c-1.9,1.9-2.4,5.5-0.9,7.8l44.1,71.5C115.8,142.9,117.8,139.7,119.8,136.6z"/>
	<g>
		<path d="M206.3,76.5l1.4,7.1c-60.9,26.9-101.3,88.3-101.3,155.3c0,93.5,76.1,169.7,169.7,169.7c68.3,0,130.1-41.3,156.4-103.8
			l7,1.7c-27.2,65.7-91.5,109.2-163.4,109.2c-47.2,0-91.6-18.4-125-51.8c-33.4-33.4-51.8-77.8-51.8-125c0-37.3,11.5-72.9,33.2-103.1
			C151.4,109.5,176.8,89.1,206.3,76.5 M213.8,62.8C141.3,88.5,89.3,157.6,89.3,238.9c0,103.1,83.6,186.8,186.8,186.8
			c82,0,151.6-52.8,176.7-126.2l-26.5-6.4c-22.2,61.5-81.1,105.6-150.2,105.6c-88.2,0-159.7-71.5-159.7-159.7
			c0-68.1,42.7-126.2,102.7-149.2L213.8,62.8z"/>
		<path d="M206.3,76.5l1.4,7.1c-60.9,26.9-101.3,88.3-101.3,155.3c0,93.5,76.1,169.7,169.7,169.7c68.3,0,130.1-41.3,156.4-103.8
			l7,1.7c-27.2,65.7-91.5,109.2-163.4,109.2c-47.2,0-91.6-18.4-125-51.8c-33.4-33.4-51.8-77.8-51.8-125c0-37.3,11.5-72.9,33.2-103.1
			C151.4,109.5,176.8,89.1,206.3,76.5 M213.8,62.8C141.3,88.5,89.3,157.6,89.3,238.9c0,103.1,83.6,186.8,186.8,186.8
			c82,0,151.6-52.8,176.7-126.2l-26.5-6.4c-22.2,61.5-81.1,105.6-150.2,105.6c-88.2,0-159.7-71.5-159.7-159.7
			c0-68.1,42.7-126.2,102.7-149.2L213.8,62.8z"/>
	</g>
	<path d="M479.5,399.2L438,332c-1.9,3.2-3.8,6.4-5.9,9.5l37.3,60.4l-32.6,32.5L379,394.8c-3,2-6.1,3.9-9.3,5.8l64.2,44.1
		c1,0.7,2.2,1,3.3,1c1.6,0,3.2-0.6,4.3-1.7l37-37C480.5,405.1,480.9,401.5,479.5,399.2z"/>
	<path d="M258,120.4l-19.1-1l-5-3l7-9l4-7l-6-5l-5,10l-5,5h-12l7-8l-0.7-6.6c-47.3,17.5-83.6,57.8-95.5,107.5l2.4,4.7c0,0,4,2,3,7
		s-5,8-5,8l-4.3,7.8c-0.1,2.7-0.2,5.4-0.2,8.2c0,26.7,6.8,51.7,18.9,73.6c4.4,6.2,22.3,25.8,22.3,25.8l6-4l-11-22.1
		c0,0,15.1-26.1,17.1-27.1c2-1,7-1,7-1s3,1,5,0c2-1,9-23.1,9-23.1s8-3,9-4c1-1,3-6-2-10c-5-4-16.1-11-16.1-11s-1-4-1-6
		c0-2-44.2-19.1-44.2-19.1l-3-4c0,0,2-5,3-6c1-1-1-7-1-7s1-16.1,6-18.1c5-2,9-1,7,2c-2,3-5,5-5,5l-4,2l4,6l7,1l2-3l-5-5l5-2l12-21.1
		c0,0,26.1-11,30.1-13.1c4-2,7-5,8-5c1,0,5-1,7-1c2,0,4-1,4-2s1-5,2-6c0.8-0.8,2.8-2.2,3.6-2.8c-0.8,0.7-2.2,2.6,3.4,5.8
		c7,4,8,0,8,0l-1-4l7,1l17.1-2l3-7L258,120.4z"/>
</g>
</svg>
