<?xml version="1.0" encoding="utf-8"?>
<!-- Generator: Adobe Illustrator 15.1.0, SVG Export Plug-In . SVG Version: 6.00 Build 0)  -->
<!DOCTYPE svg PUBLIC "-//W3C//DTD SVG 1.1//EN" "http://www.w3.org/Graphics/SVG/1.1/DTD/svg11.dtd">
<svg version="1.1" id="Layer_1" xmlns="http://www.w3.org/2000/svg" xmlns:xlink="http://www.w3.org/1999/xlink" x="0px" y="0px"
	 width="512px" height="512px" viewBox="0 0 512 512" style="enable-background:new 0 0 512 512;" xml:space="preserve">
<path d="M346.8,260.1c0-1.7,0-3.4,0-5.1h-0.1c-0.6-64.3-7.2-105.3-16.4-132.7c-4.8-14.3-10.4-24.9-16.1-32.9
	c-5.7-8-11.7-13.5-17.1-17.7c-6.5-5.1-14.3-7.8-21.3-9.3c-7.1-1.5-13.5-1.8-17.6-1.8c-1.3,0-2.4,0-3.1,0.1c-0.8,0-1.8-0.1-3.1-0.1
	c-4.1,0-10.6,0.3-17.6,1.8c-7.1,1.5-14.8,4.2-21.3,9.3c-5.4,4.2-11.4,9.7-17.1,17.7c-8.6,12.1-16.8,29.7-22.7,57.4
	c-5.6,26-9.3,60.7-9.8,108.2h0c0,1.5,0,2.9,0,4.3c0,1.7,0,3.5,0,5.3h0.1c0.6,62.4,7.2,102.4,16.4,129c4.8,14,10.4,24.2,16.1,32.1
	c5.7,7.8,11.7,13.2,17.1,17.3c6.5,4.9,14.3,7.5,21.3,9c7.1,1.5,13.5,1.7,17.6,1.7c1.3,0,2.4,0,3.1-0.1c0.8,0,1.8,0.1,3.1,0.1
	c4.1,0,10.5-0.3,17.6-1.7c7.1-1.5,14.8-4.1,21.3-9c5.4-4.1,11.4-9.5,17.1-17.3c8.6-11.7,16.8-29,22.8-55.9
	c5.6-25.2,9.3-59.1,9.8-105.1h0C346.8,263.1,346.8,261.6,346.8,260.1z M323.4,391.2c-4.6,13.4-9.8,22.9-15.1,30.1
	c-5.3,7.2-10.6,12-15.6,15.8c-5.3,4-12,6.4-18.4,7.7c-6.4,1.3-12.4,1.6-16.1,1.6c-0.9,0-1.7,0-2.4,0l0-0.1h0l0,0c0,0-0.3,0-0.8,0
	c-0.2,0-0.4,0-0.5,0l-0.2,0l0,0h0h0l0,0.1c-0.6,0-1.4,0-2.4,0c-3.7,0-9.7-0.3-16.1-1.6c-6.4-1.3-13.1-3.7-18.4-7.7
	c-5-3.8-10.4-8.6-15.6-15.8c-7.9-10.7-15.7-26.9-21.5-53.2c-5.6-25.3-9.4-60-9.6-108c0.3-66.7,7-108.5,16.1-135.4
	c4.6-13.7,9.8-23.6,15.1-31c5.3-7.4,10.6-12.3,15.7-16.2c5.3-4.1,12-6.5,18.4-7.9c6.4-1.4,12.4-1.6,16.1-1.6c0.9,0,1.7,0,2.4,0
	l0,0.1h0l0,0c0,0,0.3,0,0.8,0c0.2,0,0.4,0,0.5,0l0.2,0l0,0h0l0-0.1l0,0l0,0.1h0l0-0.1c0.6,0,1.4,0,2.4,0c3.7,0,9.7,0.3,16.1,1.6
	c6.4,1.3,13.1,3.8,18.4,7.9c5,3.9,10.4,8.8,15.6,16.2c7.9,11,15.7,27.7,21.5,54.7c5.6,26,9.4,61.7,9.6,111
	C339.2,324.3,332.5,365,323.4,391.2z"/>
<path d="M474,177.7C433.1,40.3,326.4,12,254.9,12C182.5,12,76.7,40.3,35.8,177.7c-8.1,27.1-11.3,53.9-10.8,79.7
	c-0.5,25.8,2.7,52.6,10.8,79.7c40.9,137.4,146.7,165.7,219.1,165.7c71.5,0,178.2-28.3,219.1-165.7c8.1-27.1,11.3-53.9,10.8-79.7
	C485.2,231.7,482,204.9,474,177.7z M305.1,450.5c-15.4,12.3-40.9,14.4-50.1,14.7c-9.2-0.3-34.9-2.3-50.3-14.7
	c-20.8-16.7-47.8-52-48.2-193c0.4-141.1,27.4-176.4,48.2-193c15.4-12.3,41-14.4,50.3-14.7c9.2,0.3,34.7,2.3,50.1,14.7
	c20.8,16.7,47.8,51.9,48.2,193C352.9,398.5,325.9,433.8,305.1,450.5z"/>
</svg>
