<?xml version="1.0" encoding="utf-8"?>
<!-- Generator: Adobe Illustrator 15.1.0, SVG Export Plug-In . SVG Version: 6.00 Build 0)  -->
<!DOCTYPE svg PUBLIC "-//W3C//DTD SVG 1.1//EN" "http://www.w3.org/Graphics/SVG/1.1/DTD/svg11.dtd">
<svg version="1.1" id="Layer_1" xmlns="http://www.w3.org/2000/svg" xmlns:xlink="http://www.w3.org/1999/xlink" x="0px" y="0px"
	 width="512px" height="512px" viewBox="0 0 512 512" style="enable-background:new 0 0 512 512;" xml:space="preserve">
<path id="Safari" d="M208,259.5c2.7-20.6,18-37.3,37.9-42.1l16.8-13.8c-1.6-0.1-3.3-0.2-4.9-0.2c-0.2,0-0.5,0-0.7,0l-46.4-79.1
	l-0.9-1.5l9,94.2c-4.4,3.5-8.4,7.6-11.7,12.2l-50.3-13.1l-1.2-0.3l41.5,34.3c-1.4,5.1-2.1,10.5-2.1,16.1c0,0.1,0,0.2,0,0.3
	l-80.6,47.3l-1.5,0.9l66.9-6.4L208,259.5z M332,227.1l-24.1,40.8c-0.8,23.3-17.5,42.6-39.5,47.3l-16.1,13.4c0.9,0.1,1.8,0.1,2.7,0.2
	l49.7,82.5l-0.5-5l-9.6-89.3c4.5-3.3,8.6-7.2,12.1-11.5l52.3,13l-3-2.4l-38.4-30.9c1.7-5.3,2.7-10.9,2.9-16.7l81.1-48.8l-5.1,0.5
	L332,227.1z M373.4,132l1-1.7L231.3,247.5l-91.6,158.3l4.6-3.9l137.2-114.7L373.4,132z M257.7,281.8c-8.7,0-15.7-7-15.7-15.7
	c0-8.7,7-15.7,15.7-15.7c8.7,0,15.7,7,15.7,15.7C273.4,274.8,266.4,281.8,257.7,281.8z M417.3,105.9C374.2,62.9,316.9,39.1,256,39.1
	c-13.6,0-27,1.3-40.2,3.6c0.8-3.1,1-6.2,0.2-9.2c-2.4-10.2-13.3-16.8-27.6-16.8c-3.7,0-7.6,0.5-11.4,1.4
	c-18.7,4.5-30.9,18.3-27.7,31.4c1.2,4.8,4.2,8.8,8.6,11.7c-23.2,11-44.6,26.1-63.3,44.8C51.6,149,27.9,206.3,27.9,267.2
	c0,60.9,23.7,118.2,66.8,161.3c43.1,43.1,100.4,66.8,161.3,66.8c60.9,0,118.2-23.7,161.3-66.8c43.1-43.1,66.8-100.4,66.8-161.3
	C484.1,206.3,460.4,149,417.3,105.9z M180.5,32.4c2.7-0.6,5.3-1,7.9-1c7.7,0,12.6,2.8,13.2,5.5c0.4,1.7-0.7,4.1-3,6.4
	c-2.1,2.1-5,3.9-8.3,5.3c-2.1,0.6-4.1,1.3-6.1,2c-2.5,0.5-4.9,0.8-7.3,0.8c-7.7,0-12.6-2.8-13.2-5.5
	C162.8,42.3,168.9,35.2,180.5,32.4z M256,458.4c-105.4,0-191.2-85.8-191.2-191.2S150.6,76.1,256,76.1
	c105.4,0,191.2,85.8,191.2,191.2S361.4,458.4,256,458.4z M197.6,112.8l-5-12L185,104l5,12C192.5,114.8,195,113.8,197.6,112.8z
	 M236.3,102.8l-2-12.8l-8.1,1.3l2,12.8C230.8,103.6,233.5,103.2,236.3,102.8z M162.4,131.8l-7.8-10.6l-6.6,4.9l7.9,10.6
	C158,135,160.2,133.4,162.4,131.8z M110.8,191.7l-12.3-5.9l-3.6,7.4l12.3,6C108.3,196.6,109.5,194.2,110.8,191.7z M277.4,89.6
	l-8.2-0.7l-1.1,12.8c2.7,0.2,5.5,0.4,8.2,0.7L277.4,89.6z M132.9,158.6l-10.3-8.6l-5.2,6.3l10.4,8.6
	C129.4,162.8,131.2,160.7,132.9,158.6z M319.6,99.6l-7.8-2.7l-4.2,12.2c2.6,0.8,5.2,1.7,7.8,2.7L319.6,99.6z M430.8,223l-2.2-7.9
	l-13.1,3.7c0.8,2.6,1.5,5.2,2.2,7.9L430.8,223z M411.1,175.7l-11.6,6.6c1.4,2.4,2.7,4.7,4,7.2l11.7-6.6L411.1,175.7z M97.2,229.1
	l-13.6-2.9l-1.7,8l13.7,2.9C96,234.4,96.6,231.8,97.2,229.1z M422.4,266.2C422.4,266.2,422.4,266.2,422.4,266.2l14-0.4l-0.3-8.2
	l-13.9,0.4C422.4,260.7,422.4,263.4,422.4,266.2z M390.4,147.6l-5.6-6l-9.6,9.1c1.9,1.9,3.8,3.9,5.6,6L390.4,147.6z M357.9,119.3
	l-6.9-4.4l-7,10.9c2.3,1.4,4.6,2.9,6.9,4.5L357.9,119.3z M403.6,342.7l13.1,6.4l3.6-7.4l-13-6.3
	C406.1,337.8,404.9,340.2,403.6,342.7z M351.6,401.5l8.9,12.1l6.6-4.9l-8.9-12.1C356.1,398.3,353.9,399.9,351.6,401.5z M316.8,419.9
	l5.8,14l7.6-3.2l-5.8-14C321.9,417.9,319.3,419,316.8,419.9z M278.5,429.6l2.3,15.1l8.1-1.3l-2.3-15.1
	C284,428.8,281.3,429.2,278.5,429.6z M237.8,445.1l8.2,0.7l1.4-15.3c-2.7-0.2-5.5-0.4-8.2-0.7L237.8,445.1z M381.1,375.2l11.4,9.5
	l5.2-6.3l-11.4-9.5C384.7,371.1,383,373.2,381.1,375.2z M417.7,305.6l14,3l1.7-8l-13.9-3C418.9,300.3,418.3,303,417.7,305.6z
	 M98.3,307.8l-14,3.9l2.2,7.9l14-3.9C99.8,313.1,99,310.5,98.3,307.8z M100,351.9l4,7.1l12.9-7.3c-1.4-2.3-2.8-4.7-4.1-7.1
	L100,351.9z M195.6,435.1l7.8,2.7l5-14.5c-2.6-0.8-5.2-1.7-7.8-2.7L195.6,435.1z M93,268.6L78.8,269l0.3,8.2l14.3-0.5
	C93.2,274.1,93.1,271.3,93,268.6z M157.3,415.4l6.9,4.4l8.2-12.8c-2.3-1.4-4.6-2.9-6.9-4.4L157.3,415.4z M135.7,376.8l-10.9,10.3
	l5.6,6l11-10.4C139.5,380.8,137.6,378.9,135.7,376.8z"/>
</svg>
