<?xml version="1.0" encoding="utf-8"?>
<!-- Generator: Adobe Illustrator 15.1.0, SVG Export Plug-In . SVG Version: 6.00 Build 0)  -->
<!DOCTYPE svg PUBLIC "-//W3C//DTD SVG 1.1//EN" "http://www.w3.org/Graphics/SVG/1.1/DTD/svg11.dtd">
<svg version="1.1" id="Ebene_1" xmlns="http://www.w3.org/2000/svg" xmlns:xlink="http://www.w3.org/1999/xlink" x="0px" y="0px"
	 width="60px" height="56px" viewBox="0 0 60 56" xml:space="preserve">
<g>
	<path class="svg-button-inline" d="M49.5,55.5c-5.5,0-10-4.5-10-10c0-5.5,4.5-10,10-10s10,4.5,10,10C59.5,51,55,55.5,49.5,55.5z M55.3,44.7
		c0-0.5-0.4-0.8-0.8-0.8h-3.3v-3.3c0-0.5-0.4-0.8-0.8-0.8h-1.7c-0.5,0-0.8,0.4-0.8,0.8v3.3h-3.3c-0.5,0-0.8,0.4-0.8,0.8v1.7
		c0,0.5,0.4,0.8,0.8,0.8h3.3v3.3c0,0.5,0.4,0.8,0.8,0.8h1.7c0.5,0,0.8-0.4,0.8-0.8v-3.3h3.3c0.5,0,0.8-0.4,0.8-0.8V44.7z" />
</g>
<g>
	<path class="svg-button-inline" d="M30,27c7.2,0,13.1-5.8,13.1-13s-5.9-13-13.1-13c-7.2,0-13.1,5.8-13.1,13S22.8,27,30,27z"/>
	<path class="svg-button-inline" d="M35.5,45.5c0-7.7,6.3-14,14-14c0.8,0,1.6,0.1,2.4,0.2c-1.7-3.9-4.6-6.9-9.7-6.9c-1.1,0-5.5,4.7-12.2,4.7
		c-6.7,0-11.1-4.7-12.2-4.7C7.8,24.8,6,36.6,6,44.2c0,5.5,3.7,8.7,9.1,8.7h22.5C36.3,50.8,35.5,48.2,35.5,45.5z"/>
</g>
</svg>
