<?xml version="1.0" encoding="utf-8"?>
<!-- Generator: Adobe Illustrator 15.1.0, SVG Export Plug-In . SVG Version: 6.00 Build 0)  -->
<!DOCTYPE svg PUBLIC "-//W3C//DTD SVG 1.1//EN" "http://www.w3.org/Graphics/SVG/1.1/DTD/svg11.dtd">
<svg version="1.1" id="svg2593" xmlns:svg="http://www.w3.org/2000/svg"
	 xmlns="http://www.w3.org/2000/svg" xmlns:xlink="http://www.w3.org/1999/xlink" x="0px" y="0px" width="15px" height="15px"
	 viewBox="50.2 52.5 15 15" style="enable-background:new 50.2 52.5 15 15;" xml:space="preserve">
<g id="g2726">
	<g id="g2604" transform="translate(6998.0969,7259.1135)">
		<path id="path2606" style="fill:#F8931E;" d="M-6941-7204.6v10.6v1.3l2.1-1v-12L-6941-7204.6z"/>
	</g>
	<g id="g2608" transform="translate(7108.9192,7206.3137)">
		<path id="path2610" style="fill:#B3B3B3;" d="M-7044.5-7148.3l0.3,3l-4.1-0.9"/>
	</g>
	<g id="g2620" transform="translate(6934.0969,7147.6213)">
		<path id="path2622" style="fill:#B3B3B3;" d="M-6881.2-7085.7c0-1.5,1.6-2.8,3.9-3.2v-1.3c-3.4,0.4-6,2.3-6,4.5
			c0,2.3,2.8,4.2,6.4,4.5v-1.3C-6879.4-7082.8-6881.2-7084.1-6881.2-7085.7 M-6874.5-7090.2v1.3c0.9,0.2,1.7,0.4,2.3,0.8l1.5-0.9
			C-6871.7-7089.6-6873-7090-6874.5-7090.2"/>
	</g>
</g>
</svg>
